; OM File Header - Saved 2009/11/04 13:29:35
; (6.010006 :patc (om-make-point 97 48) (om-make-point 50 50) (om-make-point 786 754) "" 183 0 nil "2009/11/04 13:29:05")
; End File Header
(in-package :om)(load-lib-for (quote ("OM-fil")))(setf *om-current-persistent* (om-load-patch1 "low-pass" (quote ((om-load-boxcall (quote bastype) "aux3" (quote t) (quote nil) (om-make-point 451 411) (om-make-point 21 30) 5 "5" nil) (om-load-boxcall (quote genfun) "LOW-PASS" (quote filtres::low-pass) (quote ((om-load-inputfun (quote input-funbox) "list of data" "DATA" (list 1 2 3 4 5 6)) (om-load-inputfun (quote input-funbox) "window size in samples data" "WINDOW" 100))) (om-make-point 346 441) (om-make-point 169 61) nil nil nil 1) (om-load-boxcall (quote bastype) "aux4" (quote t) (quote nil) (om-make-point 504 517) (om-make-point 21 30) 8 "8" nil) (om-load-editor-box1 "BPF" (quote bpf) (quote ((om-load-inputfun (quote input-funbox) "objs" "SELF" nil) (om-load-inputfun (quote input-funbox) "no documentation" "X-POINTS" (list 0 10)) (om-load-inputfun (quote input-funbox) "no documentation" "Y-POINTS" (list 0 100)) (om-load-inputfun (quote input-funbox) "no documentation" "DECIMALS" 0))) (om-make-point 179 547) (om-make-point 415 158) (let ((newobj (when (find-class (quote bpf) nil) (let ((newbpf (simple-bpf-from-list (quote (0.0 10.0 20.0 30.0 40.0 50.0 60.0 70.0 80.0 89.99999 100.0 110.00001 120.0 130.0 140.0 150.0 160.0 170.0 179.99999 190.0 200.0 210.0 220.00002 230.0 240.0 250.0 260.0 270.0 280.0 290.0 300.0 310.0 320.0 330.0 340.0 350.0 359.99997 370.0 380.0 389.99997 400.0 410.00003 420.0 430.0 440.00003 450.0 460.0 469.99997 480.0 490.00003)) (quote (76.0 -17.0 -89.0 -56.0 -30.4 -65.0 -63.2 -32.6 -35.6 -3.0 26.6 39.4 42.0 50.4 33.0 4.2 -18.8 -46.2 -32.8 -52.6 -45.4 -38.0 -36.8 -32.4 -20.4 -19.8 3.8 21.6 9.4 18.0 33.4 14.8 -8.0 12.0 5.0 16.6 -1.4 25.4 -8.4 -24.0 -35.0 -8.4 -35.0 -2.8 23.6 35.8 9.8 30.0 1.8 -0.6)) (quote bpf) 8))) (setf (bpfcolor newbpf) (om-make-color 0 0 0)) (set-name newbpf nil) newbpf)))) newobj) nil nil (pairlis (quote (picture deltapict outport inport zoom palette-mode obj-mode cmnpref notechancolor? grillestep mode winsize winpos show-stems)) (list nil (om-make-point 0 0) 0 0 1 0 0 (list 1 15 2 2 1) nil 1000 0 18350450 2621450 (quote t))) t nil nil nil) (om-load-editor-box1 "BPF" (quote bpf) (quote ((om-load-inputfun (quote input-funbox) "objs" "SELF" nil) (om-load-inputfun (quote input-funbox) "no documentation" "X-POINTS" (list 0 10)) (om-load-inputfun (quote input-funbox) "no documentation" "Y-POINTS" (list 0 100)) (om-load-inputfun (quote input-funbox) "no documentation" "DECIMALS" 0))) (om-make-point 44 248) (om-make-point 601 139) (let ((newobj (when (find-class (quote bpf) nil) (let ((newbpf (simple-bpf-from-list (quote (0 10 20 30 40 50 60 70 80 90 100 110 120 130 140 150 160 170 180 190 200 210 220 230 240 250 260 270 280 290 300 310 320 330 340 350 360 370 380 390 400 410 420 430 440 450 460 470 480 490)) (quote (76 -17 -89 -56 -66 -97 -8 64 -71 97 51 56 77 -29 10 -93 -59 -60 38 -89 -57 -22 -54 60 -29 -54 96 35 -1 14 23 3 -79 99 -21 81 -87 55 -70 -99 26 46 -78 91 33 87 -84 23 -50 21)) (quote bpf) 0))) (setf (bpfcolor newbpf) (om-make-color 0 0 0)) (set-name newbpf nil) newbpf)))) newobj) "x" nil (pairlis (quote (picture deltapict outport inport zoom palette-mode obj-mode cmnpref notechancolor? grillestep mode winsize winpos show-stems)) (list nil (om-make-point 0 0) 0 0 1 0 0 (list 1 15 2 2 1) nil 1000 0 18350450 2621450 (quote t))) t nil nil nil) (om-load-boxcall (quote bastype) "aux2" (quote t) (quote nil) (om-make-point 277 105) (om-make-point 28 30) 50 "50" nil) (om-load-boxcall (quote genfun) "REPEAT-N" (quote repeat-n) (quote ((om-load-inputfun (quote input-funbox) "patch" "SELF" nil) (om-load-inputfun (quote input-funbox) "times" "NUM" 0))) (om-make-point 147 154) (om-make-point 213 53) nil nil nil 1) (om-load-boxcall (quote bastype) "aux1" (quote t) (quote nil) (om-make-point 219 50) (om-make-point 35 30) 100 "100" nil) (om-load-boxcall (quote bastype) "aux" (quote t) (quote nil) (om-make-point 141 51) (om-make-point 40 30) -100 "-100" nil) (om-load-boxcall (quote genfun) "OM-RANDOM" (quote om-random) (quote ((om-load-inputfun (quote input-funbox) "min" "LOW" 0) (om-load-inputfun (quote input-funbox) "max" "HIGH" 0))) (om-make-point 139 84) (om-make-point 125 53) nil nil nil 1))) (quote ((4 2 1 0 nil 0) (0 0 1 1 nil 0) (1 0 3 2 nil 0) (2 0 3 3 nil 0) (6 0 4 2 nil 0) (9 0 6 0 nil 0) (5 0 6 1 nil 0) (8 0 9 0 nil 0) (7 0 9 1 nil 0))) nil 6.010006))
